Coordinates
version=1
nRows=8
nColumns=36
inDegrees=yes

Units are S.I. units (second, meters, Newtons, ...)
If the header above contains a line with 'inDegrees', this indicates whether rotational values are in degrees (yes) or radians (no).

endheader
time	pelvis_tilt	pelvis_list	pelvis_rotation	pelvis_tx	pelvis_ty	pelvis_tz	hip_flexion_r	hip_adduction_r	hip_rotation_r	knee_angle_r	knee_angle_r_beta	ankle_angle_r	subtalar_angle_r	mtp_angle_r	hip_flexion_l	hip_adduction_l	hip_rotation_l	knee_angle_l	knee_angle_l_beta	ankle_angle_l	subtalar_angle_l	mtp_angle_l	lumbar_extension	lumbar_bending	lumbar_rotation	arm_flex_r	arm_add_r	arm_rot_r	elbow_flex_r	pro_sup_r	arm_flex_l	arm_add_l	arm_rot_l	elbow_flex_l	pro_sup_l
      0.00000000	     -0.73860410	     -0.30741857	     -1.88829714	     -0.18526354	      1.15156821	     -0.62833542	      1.48616857	    -10.25669875	     -6.53545599	      2.86887305	      0.05007128	      3.22524258	      9.98051034	     -4.93316487	     -1.79324153	     -9.81190423	    -11.92097281	      3.87638063	      0.06765561	      5.29777990	     12.70356639	     -4.93316487	    -10.97236643	     -1.08949167	      1.46872721	      0.89075920	    -10.66295582	     11.91624486	    102.11177160	    106.49215048	      1.08708875	    -10.31016249	     16.03127248	    103.96048294	    106.73781694
      0.01000000	     -0.69247434	     -0.34901038	     -2.08879168	     -0.18631750	      1.15175320	     -0.62785845	      1.64327615	    -10.19193526	     -6.27854937	      3.05006007	      0.05323359	      3.27471453	      9.95164864	     -5.51947618	     -1.66283853	     -9.95422236	    -12.78605804	      4.22568923	      0.07375219	      5.64984393	     13.76167062	     -5.51947618	    -11.31168461	     -1.04539848	      1.73839251	      1.32952859	    -10.74626423	     11.90349385	    102.09833933	    107.37839773	      1.57511282	    -10.30459297	     16.11832947	    103.86389889	    107.55777089
      0.02000000	     -0.73007006	     -0.30938352	     -2.09028940	     -0.18771361	      1.15185622	     -0.62789135	      1.86629372	    -10.24695023	     -6.32048121	      3.23274733	      0.05642208	      3.27634401	      9.99049459	     -5.88763638	     -1.57913874	     -9.84373405	    -11.93113162	      4.13629691	      0.07219200	      5.10057006	     12.34928818	     -5.88763638	    -11.60763143	     -1.04611837	      1.70436946	      1.90932476	    -10.82345863	     12.14675098	    102.27786452	    104.58701371	      2.01027213	    -10.27169858	     16.35338076	    104.18260394	    104.85720691
      0.03000000	     -0.92741024	     -0.38057372	     -2.20388102	     -0.18923908	      1.15174994	     -0.62758797	      2.26572457	    -10.12390906	     -5.86429588	      3.37300387	      0.05887002	      3.02590865	      9.30929982	     -6.42216819	     -1.13487040	     -9.99814205	    -12.28310735	      4.49152963	      0.07839198	      5.31141084	     12.69747605	     -6.42216819	    -11.75370143	     -0.92748787	      1.89744569	      2.40304579	    -10.86740899	     11.84351078	    101.94379955	    109.18778631	      2.55627483	    -10.25563537	     16.18729975	    103.67709435	    109.23001130
      0.04000000	     -0.94705926	     -0.42077811	     -2.29662132	     -0.19067581	      1.15189829	     -0.62722166	      2.49999485	    -10.06473630	     -5.78553937	      3.57054447	      0.06231776	      3.01651197	      9.33158416	     -6.63523475	     -0.95136387	    -10.08933265	    -12.46405608	      4.69852392	      0.08200471	      5.33731687	     12.81825091	     -6.63523475	    -12.10657088	     -0.86462178	      2.05588348	      2.95843889	    -10.94008945	     11.94116289	    102.04307683	    107.81186449	      3.15205946	    -10.29313868	     16.39839070	    103.78614194	    107.96312188
      0.05000000	     -1.04037347	     -0.41770649	     -2.32073815	     -0.19229416	      1.15196962	     -0.62700353	      2.79525160	    -10.04605811	     -5.64087151	      3.74672227	      0.06539264	      2.88394123	      9.03730407	     -6.75625886	     -0.71203662	    -10.08568344	    -12.06111315	      4.78985814	      0.08359880	      5.13268557	     12.15187101	     -6.75625886	    -12.40911146	     -0.83111428	      2.05760462	      3.64064788	    -11.03230233	     12.20680199	    102.12233994	    105.56376482	      3.71228136	    -10.31486847	     16.56803953	    104.03938959	    105.87990481
      0.06000000	     -1.35802761	     -0.41074135	     -2.43879197	     -0.19417602	      1.15174646	     -0.62668537	      3.42769921	    -10.01841447	     -5.35011880	      4.03783273	      0.07047348	      2.76084667	      8.64189364	     -6.96877358	     -0.13075975	    -10.14135398	    -12.16082211	      5.11087964	      0.08920168	      5.16827360	     12.09206433	     -6.96877358	    -12.50567522	     -0.81766091	      2.20398788	      4.30378006	    -11.11075170	     12.05994415	    101.86370718	    108.94521720	      4.33793739	    -10.26960556	     16.41138298	    103.65245080	    109.29681616
      0.07000000	     -1.57624800	     -0.40657985	     -2.64276680	     -0.19612206	      1.15165537	     -0.62614807	      4.01290432	     -9.99160472	     -5.19285525	      4.38616944	      0.07655310	      2.80157275	      8.68445834	     -7.06339442	      0.28124186	    -10.19219953	    -12.30563268	      5.34971188	      0.09337009	      5.11725626	     11.97824438	     -7.06339442	    -12.73852169	     -0.81568175	      2.48141498	      4.98744762	    -11.18628861	     12.02131334	    101.84629604	    108.97622974	      5.06102895	    -10.24733197	     16.56054572	    103.57689774	    109.35455131
